<svg id="ab70347b-9a0a-421a-9696-bdfcd5a6682e" data-name="Layer 1" xmlns="http://www.w3.org/2000/svg" viewBox="0 0 353.42 139.61"><defs><style>.ace982f9-c4fd-4f35-8b86-26a01384e7d4{fill:#181421;}.f851a39f-5056-47a1-b205-af2c3cf0535e{fill:#992545;}</style></defs><title>dark3</title><path class="ace982f9-c4fd-4f35-8b86-26a01384e7d4" d="M234.83,406.5,259,458.21h-5.58l-8.14-17H223l-8,17h-5.77l24.43-51.71Zm-.65,11-8.86,18.72H243Z" transform="translate(-69.1 -336.39)"/><path class="ace982f9-c4fd-4f35-8b86-26a01384e7d4" d="M284.51,406.5h5.17v51.71h-5.17Z" transform="translate(-69.1 -336.39)"/><path class="ace982f9-c4fd-4f35-8b86-26a01384e7d4" d="M319.85,458.21V406.5H321l34.41,39.64V406.5h5.1v51.71h-1.16L325.2,419.05v39.16Z" transform="translate(-69.1 -336.39)"/><path class="ace982f9-c4fd-4f35-8b86-26a01384e7d4" d="M391.4,406.5H421v5.06H396.57v16.21h24.26v5.06H396.57v20.32h24.26v5.06H391.4Z" transform="translate(-69.1 -336.39)"/><path class="ace982f9-c4fd-4f35-8b86-26a01384e7d4" d="M209,393.91l7.4-51.72h.84l21,42.44,20.82-42.44h.83l7.44,51.72h-5.06l-5.11-37-18.29,37h-1.32l-18.5-37.27L214,393.91Z" transform="translate(-69.1 -336.39)"/><path class="ace982f9-c4fd-4f35-8b86-26a01384e7d4" d="M308.93,381.21l4.15,2.18a22.56,22.56,0,0,1-4.72,6.47,18.86,18.86,0,0,1-6,3.75,21.16,21.16,0,0,1-7.57,1.28q-9.36,0-14.64-6.13a20.71,20.71,0,0,1-5.28-13.87,20.48,20.48,0,0,1,4.47-13,18.29,18.29,0,0,1,15.17-7.24,18.88,18.88,0,0,1,15.62,7.42,20.65,20.65,0,0,1,4.22,13.08H279.93a15.56,15.56,0,0,0,4.25,10.92,13.58,13.58,0,0,0,10.18,4.27,16.29,16.29,0,0,0,5.68-1,15,15,0,0,0,4.7-2.7A22.89,22.89,0,0,0,308.93,381.21Zm0-10.3a16.32,16.32,0,0,0-2.87-6.29,13.76,13.76,0,0,0-5-3.8,15.3,15.3,0,0,0-6.51-1.44,14,14,0,0,0-9.68,3.62,16.42,16.42,0,0,0-4.47,7.91Z" transform="translate(-69.1 -336.39)"/><path class="ace982f9-c4fd-4f35-8b86-26a01384e7d4" d="M323.52,340.89h4.92v21.62a21,21,0,0,1,6.58-5.89,16,16,0,0,1,7.77-1.95,13.62,13.62,0,0,1,7.61,2.18,13,13,0,0,1,4.9,5.86q1.59,3.66,1.58,11.51v19.69H352V375.66a45.72,45.72,0,0,0-.53-8.82,10,10,0,0,0-3.32-5.72,9.87,9.87,0,0,0-6.31-1.91,12.13,12.13,0,0,0-8,3,13.89,13.89,0,0,0-4.66,7.31,51.36,51.36,0,0,0-.7,10.41v14h-4.92Z" transform="translate(-69.1 -336.39)"/><path class="ace982f9-c4fd-4f35-8b86-26a01384e7d4" d="M405.61,340.89v53h-4.85v-6.58a21,21,0,0,1-6.95,5.66,19.38,19.38,0,0,1-22.28-4,19.7,19.7,0,0,1-5.75-14.32,19.39,19.39,0,0,1,5.8-14.14,18.94,18.94,0,0,1,14-5.87,18,18,0,0,1,8.52,2,19.37,19.37,0,0,1,6.7,6v-21.8Zm-19.67,18.53a14.84,14.84,0,0,0-13.12,7.69,15.51,15.51,0,0,0,0,15.45,15.07,15.07,0,0,0,5.57,5.74,14.55,14.55,0,0,0,7.49,2.06,15.34,15.34,0,0,0,7.66-2,14.32,14.32,0,0,0,5.57-5.51,15.85,15.85,0,0,0,1.94-7.84,15.19,15.19,0,0,0-4.37-11.09A14.44,14.44,0,0,0,385.94,359.42Z" transform="translate(-69.1 -336.39)"/><path class="ace982f9-c4fd-4f35-8b86-26a01384e7d4" d="M418.46,339.91a4.06,4.06,0,0,1,0,8.12,4.08,4.08,0,0,1-4-4,4,4,0,0,1,1.19-2.88A3.9,3.9,0,0,1,418.46,339.91ZM416,355.66h4.92v38.25H416Z" transform="translate(-69.1 -336.39)"/><path class="f851a39f-5056-47a1-b205-af2c3cf0535e" d="M69.1,336.39h80v13.66H83.05v43.76h65.49v13.66H83.05v54.86h65.49V476H69.1Z" transform="translate(-69.1 -336.39)"/><path class="f851a39f-5056-47a1-b205-af2c3cf0535e" d="M173.21,336.39h14V462.52h53.71V476H173.21Z" transform="translate(-69.1 -336.39)"/></svg>