<svg id="b8a4bc50-0166-42ae-8785-cd0ad615c633" data-name="Layer 1" xmlns="http://www.w3.org/2000/svg" viewBox="0 0 307.43 139.62"><defs><style>.fbabc2d3-9d25-4ed5-b111-9a82b58a241c{fill:#181421;}.f019ee2f-95bb-443c-9b63-f81e1907617f{fill:#191522;}.e34cec35-2f8a-4675-adc8-4a7a9b2018ba{fill:#9a2645;}</style></defs><title>logo</title><path class="fbabc2d3-9d25-4ed5-b111-9a82b58a241c" d="M189.33,695.76l24.12,51.71h-5.58l-8.14-17H177.45l-8,17h-5.77l24.43-51.71Zm-.65,11-8.86,18.72H197.5Z" transform="translate(-69.59 -615.64)"/><path class="fbabc2d3-9d25-4ed5-b111-9a82b58a241c" d="M239,695.76h5.17v51.71H239Z" transform="translate(-69.59 -615.64)"/><path class="fbabc2d3-9d25-4ed5-b111-9a82b58a241c" d="M274.35,747.47V695.76h1.13l34.41,39.64V695.76H315v51.71h-1.16L279.7,708.31v39.16Z" transform="translate(-69.59 -615.64)"/><path class="fbabc2d3-9d25-4ed5-b111-9a82b58a241c" d="M345.9,695.76h29.64v5.06H351.07V717h24.26v5.06H351.07v20.32h24.26v5.06H345.9Z" transform="translate(-69.59 -615.64)"/><path class="fbabc2d3-9d25-4ed5-b111-9a82b58a241c" d="M163.52,676.17l7.4-51.72h.84l21,42.44,20.82-42.44h.83l7.44,51.72h-5.06l-5.11-37-18.29,37h-1.32l-18.5-37.27-5.08,37.27Z" transform="translate(-69.59 -615.64)"/><path class="fbabc2d3-9d25-4ed5-b111-9a82b58a241c" d="M263.43,663.48l4.15,2.18a22.65,22.65,0,0,1-4.72,6.46,18.86,18.86,0,0,1-6,3.75,21.16,21.16,0,0,1-7.57,1.28q-9.36,0-14.64-6.13a20.71,20.71,0,0,1-5.28-13.87,20.48,20.48,0,0,1,4.47-13A18.29,18.29,0,0,1,249,636.93a18.88,18.88,0,0,1,15.62,7.42,20.65,20.65,0,0,1,4.22,13.08H234.43a15.56,15.56,0,0,0,4.25,10.92,13.58,13.58,0,0,0,10.18,4.27,16.29,16.29,0,0,0,5.68-1,15,15,0,0,0,4.7-2.7A23,23,0,0,0,263.43,663.48Zm0-10.31a16.32,16.32,0,0,0-2.87-6.29,13.76,13.76,0,0,0-5-3.8,15.3,15.3,0,0,0-6.51-1.44,14,14,0,0,0-9.68,3.62,16.42,16.42,0,0,0-4.47,7.91Z" transform="translate(-69.59 -615.64)"/><path class="fbabc2d3-9d25-4ed5-b111-9a82b58a241c" d="M278,623.15h4.92v21.62a21,21,0,0,1,6.58-5.89,16,16,0,0,1,7.77-2,13.62,13.62,0,0,1,7.61,2.18,13,13,0,0,1,4.9,5.86q1.59,3.67,1.58,11.51v19.69h-4.92V657.92a45.72,45.72,0,0,0-.53-8.82,10,10,0,0,0-3.32-5.72,9.87,9.87,0,0,0-6.31-1.91,12.13,12.13,0,0,0-8,2.95,13.89,13.89,0,0,0-4.66,7.31,51.36,51.36,0,0,0-.7,10.41v14H278Z" transform="translate(-69.59 -615.64)"/><path class="fbabc2d3-9d25-4ed5-b111-9a82b58a241c" d="M360.11,623.15v53h-4.85v-6.58a21,21,0,0,1-6.95,5.66,19.38,19.38,0,0,1-22.28-4,19.7,19.7,0,0,1-5.75-14.32,19.39,19.39,0,0,1,5.8-14.14,18.94,18.94,0,0,1,14-5.87,18,18,0,0,1,8.52,2,19.37,19.37,0,0,1,6.7,6v-21.8Zm-19.67,18.53a14.84,14.84,0,0,0-13.12,7.69,15.51,15.51,0,0,0,0,15.45,15.07,15.07,0,0,0,5.57,5.74,14.55,14.55,0,0,0,7.49,2.06,15.34,15.34,0,0,0,7.66-2,14.32,14.32,0,0,0,5.57-5.51,15.84,15.84,0,0,0,1.94-7.83,15.19,15.19,0,0,0-4.37-11.1A14.48,14.48,0,0,0,340.44,641.68Z" transform="translate(-69.59 -615.64)"/><path class="fbabc2d3-9d25-4ed5-b111-9a82b58a241c" d="M373,622.17a3.92,3.92,0,0,1,2.87,1.19,4,4,0,0,1,1.19,2.89,4,4,0,0,1-8.09,0,4,4,0,0,1,1.19-2.89A3.9,3.9,0,0,1,373,622.17Zm-2.44,15.75h4.92v38.25h-4.92Z" transform="translate(-69.59 -615.64)"/><polygon class="f019ee2f-95bb-443c-9b63-f81e1907617f" points="79.54 125.95 79.54 139.62 0 139.62 0 0 13.95 0 13.95 125.95 79.54 125.95"/><rect class="e34cec35-2f8a-4675-adc8-4a7a9b2018ba" x="13.43" y="0.02" width="66.07" height="13.67"/><rect class="e34cec35-2f8a-4675-adc8-4a7a9b2018ba" x="13.95" y="62.75" width="65.55" height="13.67"/></svg>