<svg id="ecdd883f-9ecd-4025-824e-f5fea4b5ccb5" data-name="Layer 1" xmlns="http://www.w3.org/2000/svg" viewBox="0 0 409.42 139.61"><defs><style>.b559248e-80cb-4959-bea2-dd87a41671ba{fill:#181421;}.ae2367d8-886f-4dbf-a45c-a44bc2045406{fill:#992545;}</style></defs><title>dark2</title><path class="b559248e-80cb-4959-bea2-dd87a41671ba" d="M291.33,135.25,315.45,187h-5.58l-8.14-17H279.45l-8.05,17h-5.77l24.43-51.72Zm-.65,11L281.82,165H299.5Z" transform="translate(-69.6 -55.14)"/><path class="b559248e-80cb-4959-bea2-dd87a41671ba" d="M341,135.25h5.17V187H341Z" transform="translate(-69.6 -55.14)"/><path class="b559248e-80cb-4959-bea2-dd87a41671ba" d="M376.35,187V135.25h1.13l34.41,39.65V135.25H417V187h-1.16L381.7,147.81V187Z" transform="translate(-69.6 -55.14)"/><path class="b559248e-80cb-4959-bea2-dd87a41671ba" d="M447.9,135.25h29.64v5.07H453.07v16.2h24.26v5.07H453.07v20.32h24.26V187H447.9Z" transform="translate(-69.6 -55.14)"/><path class="b559248e-80cb-4959-bea2-dd87a41671ba" d="M265.52,115.66,272.92,64h.84l21,42.43L315.6,64h.83l7.45,51.71h-5.07l-5.11-37-18.29,37h-1.32L275.59,78.4l-5.08,37.26Z" transform="translate(-69.6 -55.14)"/><path class="b559248e-80cb-4959-bea2-dd87a41671ba" d="M365.43,103l4.15,2.18a22.7,22.7,0,0,1-4.72,6.47,18.66,18.66,0,0,1-6,3.74,20.94,20.94,0,0,1-7.57,1.29q-9.36,0-14.64-6.14a20.69,20.69,0,0,1-5.28-13.87,20.45,20.45,0,0,1,4.47-13A18.27,18.27,0,0,1,351,76.43a18.87,18.87,0,0,1,15.62,7.41,20.69,20.69,0,0,1,4.22,13.08H336.43a15.57,15.57,0,0,0,4.25,10.93,13.6,13.6,0,0,0,10.18,4.26,16.29,16.29,0,0,0,5.68-1,14.83,14.83,0,0,0,4.7-2.69A22.89,22.89,0,0,0,365.43,103Zm0-10.3a16.25,16.25,0,0,0-2.87-6.29,13.65,13.65,0,0,0-5-3.8,15.3,15.3,0,0,0-6.51-1.44,14,14,0,0,0-9.68,3.62,16.37,16.37,0,0,0-4.47,7.91Z" transform="translate(-69.6 -55.14)"/><path class="b559248e-80cb-4959-bea2-dd87a41671ba" d="M380,62.65h4.92V84.27a20.85,20.85,0,0,1,6.58-5.89,16,16,0,0,1,7.77-1.95,13.54,13.54,0,0,1,7.61,2.18,13,13,0,0,1,4.9,5.85q1.59,3.67,1.58,11.51v19.69h-4.92V97.41a45.87,45.87,0,0,0-.53-8.82,10,10,0,0,0-3.32-5.71A9.81,9.81,0,0,0,398.3,81a12.19,12.19,0,0,0-8,3,13.88,13.88,0,0,0-4.66,7.32,51.17,51.17,0,0,0-.7,10.4v14H380Z" transform="translate(-69.6 -55.14)"/><path class="b559248e-80cb-4959-bea2-dd87a41671ba" d="M462.11,62.65v53h-4.85v-6.57a21.21,21.21,0,0,1-6.95,5.66,19.38,19.38,0,0,1-22.28-4,19.72,19.72,0,0,1-5.75-14.33,19.36,19.36,0,0,1,5.8-14.13,18.9,18.9,0,0,1,14-5.87,18,18,0,0,1,8.52,2,19.47,19.47,0,0,1,6.7,6V62.65ZM442.44,81.17a14.84,14.84,0,0,0-13.12,7.69,15.51,15.51,0,0,0,0,15.45,15.1,15.1,0,0,0,5.57,5.75,14.53,14.53,0,0,0,7.49,2,15.34,15.34,0,0,0,7.66-2,14.19,14.19,0,0,0,5.57-5.51,15.84,15.84,0,0,0,1.94-7.83,15.21,15.21,0,0,0-4.37-11.1A14.48,14.48,0,0,0,442.44,81.17Z" transform="translate(-69.6 -55.14)"/><path class="b559248e-80cb-4959-bea2-dd87a41671ba" d="M475,61.66a4.08,4.08,0,1,1-2.84,1.2A3.89,3.89,0,0,1,475,61.66Zm-2.44,15.75h4.92v38.25h-4.92Z" transform="translate(-69.6 -55.14)"/><path class="ae2367d8-886f-4dbf-a45c-a44bc2045406" d="M69.6,55.14h80V68.81H83.55v43.75H149v13.67H83.55v54.86H149v13.66H69.6Z" transform="translate(-69.6 -55.14)"/><path class="ae2367d8-886f-4dbf-a45c-a44bc2045406" d="M173.71,55.14h14V181.28h53.71v13.47H173.71Z" transform="translate(-69.6 -55.14)"/></svg>