<svg id="becd87b8-f78a-4ac3-bcb7-4b1ccca605a6" data-name="Layer 1" xmlns="http://www.w3.org/2000/svg" viewBox="0 0 410.01 139.61"><defs><style>.ad2cee35-b81a-4220-ad43-6b6f7cc9b5a7{fill:#fff;}.f824bb89-952f-4206-9c56-2c4f6d214037{fill:#992545;}</style></defs><title>logo</title><path class="ad2cee35-b81a-4220-ad43-6b6f7cc9b5a7" d="M285.59,135.25h10L315.46,187H305.23l-4-10.65h-21.1L275.88,187H265.65ZM290.64,149l-6.93,17.76h13.83Z" transform="translate(-69.6 -55.14)"/><path class="ad2cee35-b81a-4220-ad43-6b6f7cc9b5a7" d="M340.66,135.25h9.77V187h-9.77Z" transform="translate(-69.6 -55.14)"/><path class="ad2cee35-b81a-4220-ad43-6b6f7cc9b5a7" d="M379.83,135.25h9.44l22.13,34v-34h9.85V187h-9.47L389.68,153V187h-9.85Z" transform="translate(-69.6 -55.14)"/><path class="ad2cee35-b81a-4220-ad43-6b6f7cc9b5a7" d="M451.38,135.25h28.23v9.64H461.16v9.35h18.45v9.46H461.16v13.6h18.45V187H451.38Z" transform="translate(-69.6 -55.14)"/><path class="ad2cee35-b81a-4220-ad43-6b6f7cc9b5a7" d="M272.5,64h9.59l12,36.07L306.18,64h9.58l8.68,51.71h-9.52L309.37,83l-11,32.66h-8.68L278.82,83l-5.68,32.66h-9.59Z" transform="translate(-69.6 -55.14)"/><path class="ad2cee35-b81a-4220-ad43-6b6f7cc9b5a7" d="M369.54,99.31H338.71a10.32,10.32,0,0,0,3.57,6.49,11.22,11.22,0,0,0,7.4,2.41,12.83,12.83,0,0,0,9.25-3.76l8.08,3.79a19.05,19.05,0,0,1-7.24,6.35,22.65,22.65,0,0,1-10,2.06q-9,0-14.66-5.68a19.35,19.35,0,0,1-5.66-14.22,20,20,0,0,1,5.64-14.54,18.93,18.93,0,0,1,14.15-5.78q9,0,14.7,5.78t5.66,15.27ZM360,91.75a9.68,9.68,0,0,0-3.76-5.2,10.89,10.89,0,0,0-6.49-2,11.5,11.5,0,0,0-7.05,2.25,12.58,12.58,0,0,0-3.52,5Z" transform="translate(-69.6 -55.14)"/><path class="ad2cee35-b81a-4220-ad43-6b6f7cc9b5a7" d="M377.35,62.65h9.53V81.28a21.73,21.73,0,0,1,5.66-3.64,14.53,14.53,0,0,1,5.76-1.21,13,13,0,0,1,9.6,3.93q3.35,3.42,3.34,10v25.28h-9.46V98.89a41.57,41.57,0,0,0-.63-9A6.24,6.24,0,0,0,399,86.38a6,6,0,0,0-3.78-1.16,7.1,7.1,0,0,0-5,1.93,10.24,10.24,0,0,0-2.9,5.27,44,44,0,0,0-.42,7.88v15.36h-9.53Z" transform="translate(-69.6 -55.14)"/><path class="ad2cee35-b81a-4220-ad43-6b6f7cc9b5a7" d="M448.75,62.65h9.6v53h-9.6v-4a18.84,18.84,0,0,1-5.64,3.85,15.82,15.82,0,0,1-6.12,1.18,17,17,0,0,1-12.82-5.75,20.05,20.05,0,0,1-5.41-14.29q0-8.86,5.23-14.52a16.66,16.66,0,0,1,12.72-5.66,16.14,16.14,0,0,1,6.46,1.3,17.61,17.61,0,0,1,5.58,3.9ZM438.66,85.29a9.67,9.67,0,0,0-7.39,3.14,12.56,12.56,0,0,0,.05,16.23,9.73,9.73,0,0,0,7.38,3.2,9.86,9.86,0,0,0,7.49-3.15,11.49,11.49,0,0,0,3-8.24,11.16,11.16,0,0,0-3-8.09A10,10,0,0,0,438.66,85.29Z" transform="translate(-69.6 -55.14)"/><path class="ad2cee35-b81a-4220-ad43-6b6f7cc9b5a7" d="M471.79,61.66a5.85,5.85,0,0,1,4.33,1.83,6.29,6.29,0,0,1,0,8.81,5.82,5.82,0,0,1-4.27,1.81,5.89,5.89,0,0,1-4.37-1.85,6.17,6.17,0,0,1-1.8-4.48,6.09,6.09,0,0,1,6.09-6.12ZM467,77.41h9.59v38.25H467Z" transform="translate(-69.6 -55.14)"/><path class="f824bb89-952f-4206-9c56-2c4f6d214037" d="M69.6,55.14h80V68.81H83.55v43.75H149v13.67H83.55v54.86H149v13.66H69.6Z" transform="translate(-69.6 -55.14)"/><path class="f824bb89-952f-4206-9c56-2c4f6d214037" d="M173.71,55.14h14V181.28h53.71v13.47H173.71Z" transform="translate(-69.6 -55.14)"/></svg>